<svg version="1.1" xmlns="http://www.w3.org/2000/svg" viewBox="0 0 240 180" width="480" height="360">
  <rect x="0" y="0" width="240" height="180" fill="#ffffff"></rect><g stroke-linecap="round" transform="translate(10 10) rotate(0 110 80)"><path d="M-1.66 1.37 C84.51 0.78, 169.24 -0.84, 221.24 1.55 M0.16 -0.14 C49.99 0.3, 101.57 0.42, 220.01 0.75 M220.38 1.09 C218.24 49.99, 220.65 105.27, 219.38 160 M219.25 -1 C219.53 62.12, 219.97 125.08, 220.22 159.44 M219.68 159.84 C174.33 157.95, 126.68 157.36, 0.32 160.2 M219.29 159.22 C138.55 161.19, 57.08 161.71, -0.82 160.15 M-0.2 161.68 C-0.56 114.27, 0.87 67.26, -1.71 -0.05 M-0.81 159.24 C-0.52 126.66, 0.24 91.05, 0.45 0.45" stroke="#FFFFFF" stroke-width="1" fill="none"></path></g></svg>