<svg width="64" height="64" viewBox="0 0 64 64" fill="none" xmlns="http://www.w3.org/2000/svg">
<path d="M35.1465 5.39199C34.9065 5.45066 34.1172 5.64266 33.8399 5.71733C33.4719 5.80799 33.3652 5.88799 33.2265 6.15999C32.9439 6.73066 33.1679 7.61599 33.8612 8.66666C33.9412 8.78399 34.0372 8.95999 34.0745 9.05599C34.1385 9.21066 34.2452 9.27999 34.8479 9.58399C35.7385 10.032 36.3359 10.2613 36.9065 10.3733C40.1705 11.0187 44.0372 12.7627 46.8959 14.8693C49.2799 16.6347 52.0212 19.872 53.1465 22.256C54.2772 24.656 54.9865 27.2373 55.2639 29.9733C55.3492 30.8373 55.3492 33.3813 55.2639 34.24C54.6399 40.288 52.2132 45.5147 48.1599 49.5413C44.9012 52.7733 40.4052 55.264 36.3465 56.08C31.6372 57.0293 25.9786 56.224 21.2959 53.9413C20.0159 53.3173 18.1492 52.1333 16.9866 51.2053C13.1999 48.1867 10.2932 44.0587 8.79991 39.5733C7.89857 36.88 7.52524 34.4427 7.58924 31.712C7.72257 26.0053 9.6959 21.0987 13.6426 16.672C17.1679 12.7253 22.2506 9.70133 26.9759 8.75199C27.3919 8.66666 27.7706 8.57066 27.8079 8.53866C27.8452 8.50666 27.9199 8.37866 27.9679 8.25599C28.0212 8.12799 28.0906 7.97866 28.1172 7.92533C28.1492 7.86666 28.1866 7.66933 28.2026 7.49333L28.2239 7.16266L27.9786 7.04533C27.7012 6.90666 27.7546 6.90666 26.4532 7.15733C21.6052 8.09066 17.6159 9.86133 14.1866 12.6133C11.9359 14.4213 9.9199 16.7413 8.36791 19.312C7.85057 20.1707 6.93857 22.0107 6.56524 22.944C4.55991 27.9467 4.22924 33.472 5.59991 39.024C6.23458 41.584 7.03457 43.6053 8.42657 46.1387C10.1279 49.2373 11.5252 51.0773 13.9519 53.3867C15.3386 54.7093 17.4932 56.3467 19.1199 57.3173C22.4319 59.2907 26.1279 60.4373 30.1972 60.752C31.2905 60.832 34.1172 60.7893 35.0665 60.672C40.2399 60.0267 44.7145 58.0747 48.8265 54.6613C49.4932 54.1067 51.2959 52.3147 51.9039 51.6C55.7919 47.0347 58.3839 40.9013 58.9972 34.8C59.1038 33.728 59.0878 30.1173 58.9705 29.0667C58.3465 23.4987 56.4585 19.0027 52.9652 14.7733C52.3199 13.984 50.6025 12.272 49.8132 11.616C47.8559 9.99999 46.4372 9.12533 43.5359 7.75466C42.1225 7.08799 40.3039 6.47466 38.4799 6.05333C38.0105 5.94666 37.5199 5.82399 37.3865 5.78666C36.1545 5.41866 35.5092 5.30133 35.1465 5.39199Z" fill="white" stroke-width="5" stroke="white" stroke-linecap="round"/>
</svg>
