<svg width="64" height="64" viewBox="0 0 64 64" fill="none" xmlns="http://www.w3.org/2000/svg">
<path d="M57.0932 8.07501C57.0079 8.11234 56.6826 8.16034 56.3732 8.18167C55.9732 8.20834 55.7652 8.25101 55.6426 8.32034C55.5466 8.37367 55.3279 8.44834 55.1466 8.48567L54.8266 8.54967L54.8373 11.5683C54.8479 13.227 54.8266 15.3763 54.7893 16.347C54.7519 17.3123 54.6986 19.8243 54.6666 21.9203C54.5813 27.7603 54.5119 31.147 54.4106 34.5337C54.3413 36.9977 54.3199 39.2643 54.3199 45.6697V53.707L39.1733 53.6803C18.9493 53.643 16.9813 53.6217 15.008 53.435L14.3626 53.371L14.3306 49.659C14.2773 44.2723 14.288 30.5497 14.3466 27.8137C14.3733 26.523 14.416 22.8697 14.432 19.691L14.4693 13.9203L14.9546 13.9523C15.344 13.979 15.4826 13.9683 15.6533 13.899C15.8453 13.819 16 13.8137 17.4346 13.8723C18.6613 13.9257 19.5093 13.9257 21.3546 13.8723C22.6453 13.8403 24.56 13.787 25.6 13.7603C29.5573 13.6537 31.4826 13.5683 34.9066 13.355C39.8933 13.0457 42.9279 12.811 48.1599 12.3203C50.0693 12.139 50.4373 12.091 50.5119 12.011C50.6399 11.8723 50.8266 11.371 50.8266 11.163C50.8266 10.859 50.6293 10.811 48.7466 10.6457C47.8506 10.5657 46.4586 10.443 45.6533 10.3737C43.3439 10.171 39.5839 9.88301 36.5333 9.68567C32.0959 9.39234 30.4586 9.30701 25.3813 9.12034C19.808 8.91234 19.1093 8.89634 17.7333 8.93367C16.56 8.96034 16.3146 8.95501 16.1546 8.88567C15.9946 8.81634 15.76 8.81634 14.5013 8.85367C13.6906 8.88034 12.9653 8.92834 12.8853 8.96034C12.8053 8.98701 12.624 9.01367 12.48 9.01367C12.336 9.01367 12.1386 9.04567 12.0426 9.08834C11.9466 9.13101 11.6053 9.22701 11.2906 9.30167C10.9706 9.37101 10.6666 9.47234 10.6133 9.52034C10.5546 9.57367 10.464 9.76034 10.4053 9.94167C10.288 10.315 10.2773 10.843 10.1866 26.747C10.16 31.4403 10.112 36.1657 10.0853 37.2537C10.0533 38.3363 10.0053 40.7257 9.9733 42.5603C9.94664 44.395 9.8933 47.2857 9.85597 48.987C9.75464 53.563 9.75997 54.8803 9.88797 55.2803C10.0053 55.6537 10.1386 55.9417 10.448 56.4537C10.5706 56.6563 10.752 56.9977 10.8533 57.2057C11.0613 57.6217 11.2213 57.8083 11.5466 58.0163C11.664 58.0857 11.872 58.2563 12.0106 58.3843L12.2666 58.619L12.8373 58.587C13.1573 58.5657 13.7493 58.5177 14.16 58.475C16.3253 58.251 21.648 58.2457 29.1199 58.4483C32.7893 58.5497 35.9733 58.6083 39.5999 58.6403C41.5359 58.6563 43.8506 58.6777 44.7466 58.6937C45.6426 58.7097 47.4666 58.7363 48.7999 58.7523C50.1333 58.7683 51.2586 58.7897 51.3013 58.8057C51.3386 58.8163 52.6293 58.827 54.1599 58.8323C57.1732 58.8323 57.1732 58.8323 57.4826 58.5443C57.6692 58.3737 58.2932 57.0617 58.2932 56.8483C58.2932 56.747 58.3359 56.6243 58.4052 56.555C58.5866 56.3577 58.7572 55.5097 58.8212 54.4537C58.8959 53.2643 58.9706 51.3017 59.0506 48.4003C59.1359 45.5737 59.1252 16.731 59.0399 15.707C58.9066 14.0697 58.8799 13.4617 58.8479 11.1363L58.8106 8.65101L58.6879 8.59767C58.6239 8.56567 58.5279 8.46967 58.4746 8.38434C58.3252 8.12301 58.0426 8.00034 57.6212 8.00034C57.4186 8.00567 57.1839 8.03767 57.0932 8.07501Z" fill="white" stroke-width="5" stroke="white" stroke-linecap="round"/>
</svg>
