<svg width="64" height="64" viewBox="0 0 64 64" fill="none" xmlns="http://www.w3.org/2000/svg">
<path d="M55.6001 11.2747C55.3495 11.3813 53.8295 12.6293 52.0001 14.2347C51.5148 14.6613 51.1095 15.024 51.0935 15.04C51.0775 15.056 50.8268 15.2853 50.5335 15.5467C49.6801 16.304 47.5361 18.3413 47.0135 18.8907C46.5281 19.3973 45.7281 20.304 44.2135 22.0533C43.7601 22.5813 43.2801 23.1307 43.1468 23.28C43.0135 23.4293 42.6295 23.872 42.2935 24.2667C41.9575 24.656 41.4188 25.28 41.0935 25.648C37.9948 29.2053 36.2988 31.248 34.4215 33.68C32.4055 36.2933 29.6641 39.936 28.4108 41.6693C25.1041 46.2347 24.9921 46.4053 22.1175 51.1733C21.8508 51.6107 21.5255 52.1493 21.3868 52.3627L21.1415 52.7467L20.6081 51.9093C19.9841 50.9333 18.5548 48.6027 16.8268 45.76C15.2375 43.1467 14.8641 42.5547 13.8935 41.12C12.2455 38.6827 11.0295 36.992 9.52546 35.0667C7.7388 32.7733 7.38146 32.3893 6.65613 32.0267C6.08546 31.744 6.0428 31.7387 5.2428 31.92C4.92813 31.9947 4.8748 32.3253 5.10946 32.7893C5.26946 33.12 5.76546 33.6533 5.90946 33.6533C6.01613 33.6533 6.0428 33.696 6.86413 35.0613C7.20546 35.616 7.90413 36.752 8.4268 37.5733C10.0321 40.1227 11.4881 42.5973 12.5121 44.5333C13.0401 45.5413 16.2881 52.0587 18.0268 55.6C18.4268 56.4213 18.8641 57.2747 18.9921 57.4933C19.1201 57.712 19.3121 58.0587 19.4135 58.2613C19.6321 58.688 19.9255 59.04 20.2028 59.2053C20.3095 59.2747 20.5335 59.4453 20.6935 59.584C21.0455 59.8987 21.2161 59.952 21.5841 59.8667C21.9948 59.7707 22.4001 59.504 23.0081 58.9227C23.9041 58.0747 24.5175 57.2267 26.5868 53.9733C28.6028 50.8 29.5095 49.52 33.4295 44.2933C37.2481 39.2053 38.9655 37.0293 41.7175 33.776C44.7681 30.1707 45.7175 28.992 47.8561 26.1387C49.9308 23.376 50.8375 22 52.4268 19.1947C53.3015 17.6533 54.7308 14.7733 55.1361 13.76C55.4668 12.9067 55.8508 11.7867 55.9095 11.4827C55.9521 11.2587 55.8295 11.1787 55.6001 11.2747Z" fill="white"/>
</svg>
